<svg width="169" height="169" viewBox="0 0 44.715 44.715" version="1.1" id="svg5" xml:space="preserve" xmlns:xlink="http://www.w3.org/1999/xlink" xmlns="http://www.w3.org/2000/svg"><defs id="defs2"><linearGradient id="linearGradient2119"><stop style="stop-color:#2f726f;stop-opacity:1" offset="0" id="stop2115"/><stop style="stop-color:#2f4b3c;stop-opacity:1" offset="1" id="stop2117"/></linearGradient><linearGradient xlink:href="#linearGradient2119" id="linearGradient2121" x1="77.474" y1="101.217" x2="113.541" y2="135.763" gradientUnits="userSpaceOnUse"/><filter style="color-interpolation-filters:srgb" id="filter1972" x="-.168" y="-.136" width="1.42" height="1.338"><feFlood flood-opacity=".357" flood-color="#000" result="flood" id="feFlood1962"/><feComposite in="flood" in2="SourceGraphic" operator="in" result="composite1" id="feComposite1964"/><feGaussianBlur in="composite1" stdDeviation="1.7" result="blur" id="feGaussianBlur1966"/><feOffset dx="2" dy="2" result="offset" id="feOffset1968"/><feComposite in="SourceGraphic" in2="offset" operator="over" result="composite2" id="feComposite1970"/></filter></defs><g id="layer1" transform="translate(-74.545 -94.052)"><circle style="fill:url(#linearGradient2121);fill-opacity:1;stroke:none;stroke-width:1px;stroke-linecap:square;stroke-linejoin:round;paint-order:stroke fill markers;stroke-opacity:1;stroke-dasharray:none" id="path376" cx="96.903" cy="116.409" r="22.201"/><path style="fill:#fff;stroke:none;stroke-width:.264583px;filter:url(#filter1972)" d="M98.996 130.68c.8-.128 2.306-.65 3.345-1.16a10.732 10.732 0 0 0 3.308-2.46c.78-.842 1.745-2.205 2.146-3.027.4-.822.868-2.392 1.038-3.488.242-1.551.238-2.391-.017-3.785-.18-.985-.734-2.638-1.23-3.674-.497-1.036-1.724-2.941-2.728-4.233-1.003-1.293-3.14-3.63-4.75-5.195-1.61-1.564-3.055-2.844-3.212-2.844-.157 0-1.668 1.34-3.358 2.977-1.69 1.637-3.816 3.967-4.724 5.177-.909 1.21-2.014 2.937-2.456 3.836-.442.9-.928 2.053-1.08 2.562-.152.51-.35 1.462-.441 2.117-.09.655-.032 2.024.13 3.043.16 1.018.64 2.597 1.063 3.508.423.91 1.391 2.313 2.151 3.117a11.268 11.268 0 0 0 3.254 2.373c1.03.502 2.646 1.034 3.592 1.18a11.84 11.84 0 0 0 3.969-.024c1.303-.226 0 0 0 0zm-1.984-2.905c-.583.011-1.66-.14-2.394-.335-.734-.196-1.35-.355-1.956-.688l-.004-.002c-.667-.367-1.148-.82-1.794-1.415-.646-.596-1.453-1.632-1.793-2.302-.34-.67-.767-1.943-.95-2.83-.266-1.289-.267-1.905-.003-3.084.181-.81.677-2.16 1.102-3.001.425-.841 1.31-2.244 1.968-3.117.656-.873 2.15-2.57 3.318-3.77 1.169-1.2 2.265-2.183 2.437-2.183.172 0 1.203.923 2.292 2.05 1.088 1.128 2.64 2.944 3.45 4.036.81 1.092 1.814 2.748 2.233 3.68.458 1.02.811 2.337.887 3.307.096 1.215-.016 2.034-.453 3.331-.319.946-.876 2.11-1.237 2.586a15.32 15.32 0 0 1-1.366 1.538c-.39.37-1.067.863-1.504 1.095-.436.233-1.33.571-1.984.753-.655.182-1.667.34-2.249.351 0 0 .805-.015 0 0zm.363-1.567c.92-.004 1.944-.211 2.68-.544.654-.296 1.591-.918 2.082-1.383.49-.465 1.174-1.44 1.519-2.168.344-.727.628-1.636.629-2.018.001-.382-.17-.838-.38-1.012-.21-.175-.653-.279-.985-.231-.453.065-.72.414-1.08 1.409-.274.759-.91 1.735-1.49 2.288-.78.744-1.37 1.035-2.572 1.266-.858.165-1.739.398-1.957.518-.218.12-.437.42-.485.665-.048.247.056.62.23.832.212.254.824.382 1.809.378z" id="path322"/></g></svg>